<svg xmlns="http://www.w3.org/2000/svg" version="1.1" xmlns:xlink="http://www.w3.org/1999/xlink" xmlns:svgjs="http://svgjs.com/svgjs" width="512" height="512" x="0" y="0" viewBox="0 0 512 512" style="enable-background:new 0 0 512 512" xml:space="preserve" class=""><g><path d="M472.338 295.662C472.338 415.049 375.387 512 256 512S39.662 415.048 39.662 295.662c0-17.628 14.423-32.05 32.05-32.05s32.05 14.423 32.05 32.05c0 84.131 68.106 152.238 152.238 152.238s152.238-68.106 152.238-152.238S340.131 143.424 256 143.424v57.69c0 12.82-10.416 22.435-22.435 22.435-6.41 0-12.019-2.404-16.025-6.41l-71.311-71.311c-18.429-18.429-18.429-48.876 0-68.106L217.54 6.41C221.546 2.404 227.155 0 233.565 0 246.385 0 256 10.416 256 22.435v56.889c119.387 0 216.338 96.951 216.338 216.338z" fill="#32bcad" data-original="#000000" class=""></path></g></svg>