<svg xmlns="http://www.w3.org/2000/svg" version="1.1" xmlns:xlink="http://www.w3.org/1999/xlink" xmlns:svgjs="http://svgjs.com/svgjs" width="512" height="512" x="0" y="0" viewBox="0 0 24 24" style="enable-background:new 0 0 512 512" xml:space="preserve" class=""><g><path d="M12.92 2.16a2 2 0 0 0-2.08.15L5.68 6H4a3 3 0 0 0-3 3v6a3 3 0 0 0 3 3h1.68l5.16 3.69a2 2 0 0 0 1.16.37 2 2 0 0 0 2-2V3.94a2 2 0 0 0-1.08-1.78zM21.41 12l1.3-1.29a1 1 0 0 0-1.42-1.42L20 10.59l-1.29-1.3a1 1 0 0 0-1.42 1.42l1.3 1.29-1.3 1.29a1 1 0 0 0 0 1.42 1 1 0 0 0 1.42 0l1.29-1.3 1.29 1.3a1 1 0 0 0 1.42 0 1 1 0 0 0 0-1.42z" fill="#ffffff" data-original="#000000" class=""></path></g></svg>