<svg xmlns="http://www.w3.org/2000/svg" version="1.1" xmlns:xlink="http://www.w3.org/1999/xlink" xmlns:svgjs="http://svgjs.com/svgjs" width="512" height="512" x="0" y="0" viewBox="0 0 48 48" style="enable-background:new 0 0 512 512" xml:space="preserve" class=""><g><path fill="#ffffff" fill-rule="nonzero" d="M26.38 6.357C28.888 4.184 33 5.818 33 9.38v31.24c0 3.023-3.598 5.474-6.62 3.023L15.254 34H11c-2.073 0-4-1.649-4-4V20c0-2.142 1.81-4 4-4h4.253zM39.233 17.73A11.952 11.952 0 0 1 41 24c0 2.778-.95 5.416-2.66 7.534a2 2 0 0 1-3.112-2.513A7.957 7.957 0 0 0 37 24c0-1.498-.41-2.931-1.176-4.178a2 2 0 0 1 3.41-2.092z" data-original="#000000"></path></g></svg>