<svg xmlns="http://www.w3.org/2000/svg" version="1.1" xmlns:xlink="http://www.w3.org/1999/xlink" xmlns:svgjs="http://svgjs.com/svgjs" width="512" height="512" x="0" y="0" viewBox="0 0 20 20" style="enable-background:new 0 0 512 512" xml:space="preserve" class=""><g><path fill="#ffffff" fill-rule="evenodd" d="M9.383 3.076A1 1 0 0 1 10 4v12a1 1 0 0 1-1.707.707L4.586 13H2a1 1 0 0 1-1-1V8a1 1 0 0 1 1-1h2.586l3.707-3.707a1 1 0 0 1 1.09-.217zm5.274-.147a1 1 0 0 1 1.414 0A9.973 9.973 0 0 1 19 10a9.973 9.973 0 0 1-2.929 7.071 1 1 0 0 1-1.414-1.414A7.971 7.971 0 0 0 17 10a7.97 7.97 0 0 0-2.343-5.657 1 1 0 0 1 0-1.414zm-2.829 2.828a1 1 0 0 1 1.415 0A5.982 5.982 0 0 1 15 10a5.982 5.982 0 0 1-1.757 4.243 1 1 0 1 1-1.415-1.415A3.985 3.985 0 0 0 13 10a3.982 3.982 0 0 0-1.172-2.828 1.001 1.001 0 0 1 0-1.415z" clip-rule="evenodd" data-original="#000000" class=""></path></g></svg>